<mxfile host="Electron" modified="2023-07-02T21:40:15.486Z" agent="Mozilla/5.0 (Windows NT 10.0; Win64; x64) AppleWebKit/537.36 (KHTML, like Gecko) draw.io/21.2.8 Chrome/112.0.5615.165 Electron/24.2.0 Safari/537.36" etag="sFiAXK4vPxeSHDO591Zq" version="21.2.8" type="device" pages="2">
  <diagram name="Klassendiagramm" id="Lv6qRft1BM6PWbcsOfya">
    <mxGraphModel dx="2572" dy="1478" grid="1" gridSize="10" guides="1" tooltips="1" connect="1" arrows="1" fold="1" page="1" pageScale="1" pageWidth="827" pageHeight="1169" math="0" shadow="0">
      <root>
        <mxCell id="0" />
        <mxCell id="1" parent="0" />
      </root>
    </mxGraphModel>
  </diagram>
  <diagram id="29fsjIsJ5Rx7O928ZN-9" name="Realtionales Datenmodell">
    <mxGraphModel dx="2572" dy="1478" grid="1" gridSize="10" guides="1" tooltips="1" connect="1" arrows="1" fold="1" page="1" pageScale="1" pageWidth="827" pageHeight="1169" math="0" shadow="0">
      <root>
        <mxCell id="0" />
        <mxCell id="1" parent="0" />
        <mxCell id="0ocOEdj4vjWeC6oFjArK-24" style="edgeStyle=orthogonalEdgeStyle;rounded=0;orthogonalLoop=1;jettySize=auto;html=1;" edge="1" parent="1" source="0ocOEdj4vjWeC6oFjArK-11" target="0ocOEdj4vjWeC6oFjArK-18">
          <mxGeometry relative="1" as="geometry" />
        </mxCell>
        <mxCell id="0ocOEdj4vjWeC6oFjArK-11" value="Meine DB" style="swimlane;childLayout=stackLayout;horizontal=1;startSize=50;horizontalStack=0;rounded=1;fontSize=14;fontStyle=0;strokeWidth=2;resizeParent=0;resizeLast=1;shadow=0;dashed=0;align=center;arcSize=4;whiteSpace=wrap;html=1;" vertex="1" parent="1">
          <mxGeometry x="1250" y="550" width="160" height="120" as="geometry" />
        </mxCell>
        <mxCell id="0ocOEdj4vjWeC6oFjArK-12" value="+Connection&lt;br&gt;+Initialisierung&lt;br&gt;+Datenpflege" style="align=left;strokeColor=none;fillColor=none;spacingLeft=4;fontSize=12;verticalAlign=top;resizable=0;rotatable=0;part=1;html=1;" vertex="1" parent="0ocOEdj4vjWeC6oFjArK-11">
          <mxGeometry y="50" width="160" height="70" as="geometry" />
        </mxCell>
        <mxCell id="0ocOEdj4vjWeC6oFjArK-23" style="edgeStyle=orthogonalEdgeStyle;rounded=0;orthogonalLoop=1;jettySize=auto;html=1;entryX=1;entryY=0.25;entryDx=0;entryDy=0;" edge="1" parent="1" source="0ocOEdj4vjWeC6oFjArK-13" target="0ocOEdj4vjWeC6oFjArK-17">
          <mxGeometry relative="1" as="geometry" />
        </mxCell>
        <mxCell id="0ocOEdj4vjWeC6oFjArK-13" value="Model" style="swimlane;childLayout=stackLayout;horizontal=1;startSize=50;horizontalStack=0;rounded=1;fontSize=14;fontStyle=0;strokeWidth=2;resizeParent=0;resizeLast=1;shadow=0;dashed=0;align=center;arcSize=4;whiteSpace=wrap;html=1;" vertex="1" parent="1">
          <mxGeometry x="1250" y="350" width="160" height="120" as="geometry" />
        </mxCell>
        <mxCell id="0ocOEdj4vjWeC6oFjArK-14" value="+Datencontainer" style="align=left;strokeColor=none;fillColor=none;spacingLeft=4;fontSize=12;verticalAlign=top;resizable=0;rotatable=0;part=1;html=1;" vertex="1" parent="0ocOEdj4vjWeC6oFjArK-13">
          <mxGeometry y="50" width="160" height="70" as="geometry" />
        </mxCell>
        <mxCell id="0ocOEdj4vjWeC6oFjArK-15" value="MainWindow" style="swimlane;childLayout=stackLayout;horizontal=1;startSize=50;horizontalStack=0;rounded=1;fontSize=14;fontStyle=0;strokeWidth=2;resizeParent=0;resizeLast=1;shadow=0;dashed=0;align=center;arcSize=4;whiteSpace=wrap;html=1;" vertex="1" parent="1">
          <mxGeometry x="400" y="467" width="160" height="120" as="geometry" />
        </mxCell>
        <mxCell id="0ocOEdj4vjWeC6oFjArK-16" value="+Anzeige" style="align=left;strokeColor=none;fillColor=none;spacingLeft=4;fontSize=12;verticalAlign=top;resizable=0;rotatable=0;part=1;html=1;" vertex="1" parent="0ocOEdj4vjWeC6oFjArK-15">
          <mxGeometry y="50" width="160" height="70" as="geometry" />
        </mxCell>
        <mxCell id="0ocOEdj4vjWeC6oFjArK-17" value="ViewModel" style="swimlane;childLayout=stackLayout;horizontal=1;startSize=50;horizontalStack=0;rounded=1;fontSize=14;fontStyle=0;strokeWidth=2;resizeParent=0;resizeLast=1;shadow=0;dashed=0;align=center;arcSize=4;whiteSpace=wrap;html=1;" vertex="1" parent="1">
          <mxGeometry x="840" y="450" width="160" height="120" as="geometry" />
        </mxCell>
        <mxCell id="0ocOEdj4vjWeC6oFjArK-18" value="+Logik" style="align=left;strokeColor=none;fillColor=none;spacingLeft=4;fontSize=12;verticalAlign=top;resizable=0;rotatable=0;part=1;html=1;" vertex="1" parent="0ocOEdj4vjWeC6oFjArK-17">
          <mxGeometry y="50" width="160" height="70" as="geometry" />
        </mxCell>
        <mxCell id="0ocOEdj4vjWeC6oFjArK-25" style="edgeStyle=orthogonalEdgeStyle;rounded=0;orthogonalLoop=1;jettySize=auto;html=1;entryX=0.75;entryY=1;entryDx=0;entryDy=0;" edge="1" parent="1" source="0ocOEdj4vjWeC6oFjArK-19" target="0ocOEdj4vjWeC6oFjArK-18">
          <mxGeometry relative="1" as="geometry" />
        </mxCell>
        <mxCell id="0ocOEdj4vjWeC6oFjArK-19" value="ObservableObject" style="swimlane;childLayout=stackLayout;horizontal=1;startSize=50;horizontalStack=0;rounded=1;fontSize=14;fontStyle=0;strokeWidth=2;resizeParent=0;resizeLast=1;shadow=0;dashed=0;align=center;arcSize=4;whiteSpace=wrap;html=1;" vertex="1" parent="1">
          <mxGeometry x="1000" y="750" width="160" height="120" as="geometry" />
        </mxCell>
        <mxCell id="0ocOEdj4vjWeC6oFjArK-20" value="+AbstractKlasse" style="align=left;strokeColor=none;fillColor=none;spacingLeft=4;fontSize=12;verticalAlign=top;resizable=0;rotatable=0;part=1;html=1;" vertex="1" parent="0ocOEdj4vjWeC6oFjArK-19">
          <mxGeometry y="50" width="160" height="70" as="geometry" />
        </mxCell>
        <mxCell id="0ocOEdj4vjWeC6oFjArK-26" style="edgeStyle=orthogonalEdgeStyle;rounded=0;orthogonalLoop=1;jettySize=auto;html=1;entryX=0.25;entryY=1;entryDx=0;entryDy=0;" edge="1" parent="1" source="0ocOEdj4vjWeC6oFjArK-21" target="0ocOEdj4vjWeC6oFjArK-18">
          <mxGeometry relative="1" as="geometry" />
        </mxCell>
        <mxCell id="0ocOEdj4vjWeC6oFjArK-21" value="RelayCommand" style="swimlane;childLayout=stackLayout;horizontal=1;startSize=50;horizontalStack=0;rounded=1;fontSize=14;fontStyle=0;strokeWidth=2;resizeParent=0;resizeLast=1;shadow=0;dashed=0;align=center;arcSize=4;whiteSpace=wrap;html=1;" vertex="1" parent="1">
          <mxGeometry x="800" y="750" width="160" height="120" as="geometry" />
        </mxCell>
        <mxCell id="0ocOEdj4vjWeC6oFjArK-22" value="+PrÃ¼fung und Buttonhelper" style="align=left;strokeColor=none;fillColor=none;spacingLeft=4;fontSize=12;verticalAlign=top;resizable=0;rotatable=0;part=1;html=1;" vertex="1" parent="0ocOEdj4vjWeC6oFjArK-21">
          <mxGeometry y="50" width="160" height="70" as="geometry" />
        </mxCell>
        <mxCell id="0ocOEdj4vjWeC6oFjArK-27" style="edgeStyle=orthogonalEdgeStyle;rounded=0;orthogonalLoop=1;jettySize=auto;html=1;entryX=1;entryY=0.25;entryDx=0;entryDy=0;" edge="1" parent="1" source="0ocOEdj4vjWeC6oFjArK-18" target="0ocOEdj4vjWeC6oFjArK-16">
          <mxGeometry relative="1" as="geometry" />
        </mxCell>
      </root>
    </mxGraphModel>
  </diagram>
</mxfile>
